# xmcd CD database file
#
# Track frame offsets:
#	150
#	21671
#	38028
#	54537
#	78098
#	95283
#	110051
#	124001
#	140436
#
# Disc length: 2179 seconds
#
# Revision: 2
# Processed by: cddbd v1.5.2PL0 Copyright (c) Steve Scherf et al.
# Submitted via: CDex 1.70beta2
#
DISCID=73088109
DTITLE=Ned Doheny - HARD CANDY
DYEAR=1976
DGENRE=Rock
TTITLE0=Get It Up For Love
TTITLE1=If You Should Fall
TTITLE2=Each Time You Pray
TTITLE3=When Love Hangs In The Balance
TTITLE4=A Love Of Your Own
TTITLE5=I've Got Your Number
TTITLE6=On The Swingshift
TTITLE7=Sing To Me
TTITLE8=Valentine (I Was Wrong About You)
EXTD=YEAR: 1976
EXTT0=
EXTT1=
EXTT2=
EXTT3=
EXTT4=
EXTT5=
EXTT6=
EXTT7=
EXTT8=
PLAYORDER=
